<mxfile host="Electron" modified="2024-01-11T14:36:17.730Z" agent="Mozilla/5.0 (Windows NT 10.0; Win64; x64) AppleWebKit/537.36 (KHTML, like Gecko) draw.io/22.1.2 Chrome/114.0.5735.289 Electron/25.9.4 Safari/537.36" etag="GvpD7mJpLYegOO1Jjh96" version="22.1.2" type="device">
  <diagram id="R2lEEEUBdFMjLlhIrx00" name="Page-1">
    <mxGraphModel dx="1674" dy="844" grid="1" gridSize="10" guides="1" tooltips="1" connect="1" arrows="1" fold="1" page="1" pageScale="1" pageWidth="850" pageHeight="1100" math="0" shadow="0" extFonts="Permanent Marker^https://fonts.googleapis.com/css?family=Permanent+Marker">
      <root>
        <mxCell id="0" />
        <mxCell id="1" parent="0" />
        <mxCell id="C-vyLk0tnHw3VtMMgP7b-2" value="Nacionalidades" style="shape=table;startSize=30;container=1;collapsible=1;childLayout=tableLayout;fixedRows=1;rowLines=0;fontStyle=1;align=center;resizeLast=1;" parent="1" vertex="1">
          <mxGeometry x="1040" y="470" width="366" height="90" as="geometry">
            <mxRectangle x="450" y="120" width="130" height="30" as="alternateBounds" />
          </mxGeometry>
        </mxCell>
        <mxCell id="C-vyLk0tnHw3VtMMgP7b-3" value="" style="shape=partialRectangle;collapsible=0;dropTarget=0;pointerEvents=0;fillColor=none;points=[[0,0.5],[1,0.5]];portConstraint=eastwest;top=0;left=0;right=0;bottom=1;" parent="C-vyLk0tnHw3VtMMgP7b-2" vertex="1">
          <mxGeometry y="30" width="366" height="30" as="geometry" />
        </mxCell>
        <mxCell id="C-vyLk0tnHw3VtMMgP7b-4" value="PK" style="shape=partialRectangle;overflow=hidden;connectable=0;fillColor=none;top=0;left=0;bottom=0;right=0;fontStyle=1;" parent="C-vyLk0tnHw3VtMMgP7b-3" vertex="1">
          <mxGeometry width="30" height="30" as="geometry">
            <mxRectangle width="30" height="30" as="alternateBounds" />
          </mxGeometry>
        </mxCell>
        <mxCell id="C-vyLk0tnHw3VtMMgP7b-5" value="nacionalidad_id SERIAL PRIMARY KEY" style="shape=partialRectangle;overflow=hidden;connectable=0;fillColor=none;top=0;left=0;bottom=0;right=0;align=left;spacingLeft=6;fontStyle=5;" parent="C-vyLk0tnHw3VtMMgP7b-3" vertex="1">
          <mxGeometry x="30" width="336" height="30" as="geometry">
            <mxRectangle width="336" height="30" as="alternateBounds" />
          </mxGeometry>
        </mxCell>
        <mxCell id="C-vyLk0tnHw3VtMMgP7b-6" value="" style="shape=partialRectangle;collapsible=0;dropTarget=0;pointerEvents=0;fillColor=none;points=[[0,0.5],[1,0.5]];portConstraint=eastwest;top=0;left=0;right=0;bottom=0;" parent="C-vyLk0tnHw3VtMMgP7b-2" vertex="1">
          <mxGeometry y="60" width="366" height="30" as="geometry" />
        </mxCell>
        <mxCell id="C-vyLk0tnHw3VtMMgP7b-7" value="" style="shape=partialRectangle;overflow=hidden;connectable=0;fillColor=none;top=0;left=0;bottom=0;right=0;" parent="C-vyLk0tnHw3VtMMgP7b-6" vertex="1">
          <mxGeometry width="30" height="30" as="geometry">
            <mxRectangle width="30" height="30" as="alternateBounds" />
          </mxGeometry>
        </mxCell>
        <mxCell id="C-vyLk0tnHw3VtMMgP7b-8" value="nombre_nacionalidad VARCHAR(50) NOT NULL UNIQUE" style="shape=partialRectangle;overflow=hidden;connectable=0;fillColor=none;top=0;left=0;bottom=0;right=0;align=left;spacingLeft=6;" parent="C-vyLk0tnHw3VtMMgP7b-6" vertex="1">
          <mxGeometry x="30" width="336" height="30" as="geometry">
            <mxRectangle width="336" height="30" as="alternateBounds" />
          </mxGeometry>
        </mxCell>
        <mxCell id="C-vyLk0tnHw3VtMMgP7b-23" value="ALUMNOS" style="shape=table;startSize=30;container=1;collapsible=1;childLayout=tableLayout;fixedRows=1;rowLines=0;fontStyle=1;align=center;resizeLast=1;" parent="1" vertex="1">
          <mxGeometry x="530" y="110" width="350" height="360" as="geometry" />
        </mxCell>
        <mxCell id="C-vyLk0tnHw3VtMMgP7b-24" value="" style="shape=partialRectangle;collapsible=0;dropTarget=0;pointerEvents=0;fillColor=none;points=[[0,0.5],[1,0.5]];portConstraint=eastwest;top=0;left=0;right=0;bottom=1;" parent="C-vyLk0tnHw3VtMMgP7b-23" vertex="1">
          <mxGeometry y="30" width="350" height="30" as="geometry" />
        </mxCell>
        <mxCell id="C-vyLk0tnHw3VtMMgP7b-25" value="PK" style="shape=partialRectangle;overflow=hidden;connectable=0;fillColor=none;top=0;left=0;bottom=0;right=0;fontStyle=1;" parent="C-vyLk0tnHw3VtMMgP7b-24" vertex="1">
          <mxGeometry width="30" height="30" as="geometry">
            <mxRectangle width="30" height="30" as="alternateBounds" />
          </mxGeometry>
        </mxCell>
        <mxCell id="C-vyLk0tnHw3VtMMgP7b-26" value="alumno_id SERIAL PRIMARY KEY" style="shape=partialRectangle;overflow=hidden;connectable=0;fillColor=none;top=0;left=0;bottom=0;right=0;align=left;spacingLeft=6;fontStyle=5;" parent="C-vyLk0tnHw3VtMMgP7b-24" vertex="1">
          <mxGeometry x="30" width="320" height="30" as="geometry">
            <mxRectangle width="320" height="30" as="alternateBounds" />
          </mxGeometry>
        </mxCell>
        <mxCell id="C-vyLk0tnHw3VtMMgP7b-27" value="" style="shape=partialRectangle;collapsible=0;dropTarget=0;pointerEvents=0;fillColor=none;points=[[0,0.5],[1,0.5]];portConstraint=eastwest;top=0;left=0;right=0;bottom=0;" parent="C-vyLk0tnHw3VtMMgP7b-23" vertex="1">
          <mxGeometry y="60" width="350" height="30" as="geometry" />
        </mxCell>
        <mxCell id="C-vyLk0tnHw3VtMMgP7b-28" value="" style="shape=partialRectangle;overflow=hidden;connectable=0;fillColor=none;top=0;left=0;bottom=0;right=0;" parent="C-vyLk0tnHw3VtMMgP7b-27" vertex="1">
          <mxGeometry width="30" height="30" as="geometry">
            <mxRectangle width="30" height="30" as="alternateBounds" />
          </mxGeometry>
        </mxCell>
        <mxCell id="C-vyLk0tnHw3VtMMgP7b-29" value="Nombre VARCHAR(50) NOT NULL" style="shape=partialRectangle;overflow=hidden;connectable=0;fillColor=none;top=0;left=0;bottom=0;right=0;align=left;spacingLeft=6;" parent="C-vyLk0tnHw3VtMMgP7b-27" vertex="1">
          <mxGeometry x="30" width="320" height="30" as="geometry">
            <mxRectangle width="320" height="30" as="alternateBounds" />
          </mxGeometry>
        </mxCell>
        <mxCell id="yE8PE5E7OYcc4bOPFpWW-1" value="" style="shape=partialRectangle;collapsible=0;dropTarget=0;pointerEvents=0;fillColor=none;points=[[0,0.5],[1,0.5]];portConstraint=eastwest;top=0;left=0;right=0;bottom=0;" parent="C-vyLk0tnHw3VtMMgP7b-23" vertex="1">
          <mxGeometry y="90" width="350" height="30" as="geometry" />
        </mxCell>
        <mxCell id="yE8PE5E7OYcc4bOPFpWW-2" value="" style="shape=partialRectangle;overflow=hidden;connectable=0;fillColor=none;top=0;left=0;bottom=0;right=0;" parent="yE8PE5E7OYcc4bOPFpWW-1" vertex="1">
          <mxGeometry width="30" height="30" as="geometry">
            <mxRectangle width="30" height="30" as="alternateBounds" />
          </mxGeometry>
        </mxCell>
        <mxCell id="yE8PE5E7OYcc4bOPFpWW-3" value="Apellido VARCHAR(50) NOT NULL" style="shape=partialRectangle;overflow=hidden;connectable=0;fillColor=none;top=0;left=0;bottom=0;right=0;align=left;spacingLeft=6;" parent="yE8PE5E7OYcc4bOPFpWW-1" vertex="1">
          <mxGeometry x="30" width="320" height="30" as="geometry">
            <mxRectangle width="320" height="30" as="alternateBounds" />
          </mxGeometry>
        </mxCell>
        <mxCell id="yE8PE5E7OYcc4bOPFpWW-4" value="" style="shape=partialRectangle;collapsible=0;dropTarget=0;pointerEvents=0;fillColor=none;points=[[0,0.5],[1,0.5]];portConstraint=eastwest;top=0;left=0;right=0;bottom=0;" parent="C-vyLk0tnHw3VtMMgP7b-23" vertex="1">
          <mxGeometry y="120" width="350" height="30" as="geometry" />
        </mxCell>
        <mxCell id="yE8PE5E7OYcc4bOPFpWW-5" value="FK" style="shape=partialRectangle;overflow=hidden;connectable=0;fillColor=none;top=0;left=0;bottom=0;right=0;" parent="yE8PE5E7OYcc4bOPFpWW-4" vertex="1">
          <mxGeometry width="30" height="30" as="geometry">
            <mxRectangle width="30" height="30" as="alternateBounds" />
          </mxGeometry>
        </mxCell>
        <mxCell id="yE8PE5E7OYcc4bOPFpWW-6" value="tipo_documento_id INT NOT NULL" style="shape=partialRectangle;overflow=hidden;connectable=0;fillColor=none;top=0;left=0;bottom=0;right=0;align=left;spacingLeft=6;" parent="yE8PE5E7OYcc4bOPFpWW-4" vertex="1">
          <mxGeometry x="30" width="320" height="30" as="geometry">
            <mxRectangle width="320" height="30" as="alternateBounds" />
          </mxGeometry>
        </mxCell>
        <mxCell id="yE8PE5E7OYcc4bOPFpWW-7" value="" style="shape=partialRectangle;collapsible=0;dropTarget=0;pointerEvents=0;fillColor=none;points=[[0,0.5],[1,0.5]];portConstraint=eastwest;top=0;left=0;right=0;bottom=0;" parent="C-vyLk0tnHw3VtMMgP7b-23" vertex="1">
          <mxGeometry y="150" width="350" height="30" as="geometry" />
        </mxCell>
        <mxCell id="yE8PE5E7OYcc4bOPFpWW-8" value="" style="shape=partialRectangle;overflow=hidden;connectable=0;fillColor=none;top=0;left=0;bottom=0;right=0;" parent="yE8PE5E7OYcc4bOPFpWW-7" vertex="1">
          <mxGeometry width="30" height="30" as="geometry">
            <mxRectangle width="30" height="30" as="alternateBounds" />
          </mxGeometry>
        </mxCell>
        <mxCell id="yE8PE5E7OYcc4bOPFpWW-9" value="numero_documento VARCHAR(20) NOT NULL UNIQUE" style="shape=partialRectangle;overflow=hidden;connectable=0;fillColor=none;top=0;left=0;bottom=0;right=0;align=left;spacingLeft=6;" parent="yE8PE5E7OYcc4bOPFpWW-7" vertex="1">
          <mxGeometry x="30" width="320" height="30" as="geometry">
            <mxRectangle width="320" height="30" as="alternateBounds" />
          </mxGeometry>
        </mxCell>
        <mxCell id="yE8PE5E7OYcc4bOPFpWW-10" value="" style="shape=partialRectangle;collapsible=0;dropTarget=0;pointerEvents=0;fillColor=none;points=[[0,0.5],[1,0.5]];portConstraint=eastwest;top=0;left=0;right=0;bottom=0;" parent="C-vyLk0tnHw3VtMMgP7b-23" vertex="1">
          <mxGeometry y="180" width="350" height="30" as="geometry" />
        </mxCell>
        <mxCell id="yE8PE5E7OYcc4bOPFpWW-11" value="" style="shape=partialRectangle;overflow=hidden;connectable=0;fillColor=none;top=0;left=0;bottom=0;right=0;" parent="yE8PE5E7OYcc4bOPFpWW-10" vertex="1">
          <mxGeometry width="30" height="30" as="geometry">
            <mxRectangle width="30" height="30" as="alternateBounds" />
          </mxGeometry>
        </mxCell>
        <mxCell id="yE8PE5E7OYcc4bOPFpWW-12" value="fecha_nacimiento DATE NOT NULL" style="shape=partialRectangle;overflow=hidden;connectable=0;fillColor=none;top=0;left=0;bottom=0;right=0;align=left;spacingLeft=6;" parent="yE8PE5E7OYcc4bOPFpWW-10" vertex="1">
          <mxGeometry x="30" width="320" height="30" as="geometry">
            <mxRectangle width="320" height="30" as="alternateBounds" />
          </mxGeometry>
        </mxCell>
        <mxCell id="yE8PE5E7OYcc4bOPFpWW-13" value="" style="shape=partialRectangle;collapsible=0;dropTarget=0;pointerEvents=0;fillColor=none;points=[[0,0.5],[1,0.5]];portConstraint=eastwest;top=0;left=0;right=0;bottom=0;" parent="C-vyLk0tnHw3VtMMgP7b-23" vertex="1">
          <mxGeometry y="210" width="350" height="30" as="geometry" />
        </mxCell>
        <mxCell id="yE8PE5E7OYcc4bOPFpWW-14" value="" style="shape=partialRectangle;overflow=hidden;connectable=0;fillColor=none;top=0;left=0;bottom=0;right=0;" parent="yE8PE5E7OYcc4bOPFpWW-13" vertex="1">
          <mxGeometry width="30" height="30" as="geometry">
            <mxRectangle width="30" height="30" as="alternateBounds" />
          </mxGeometry>
        </mxCell>
        <mxCell id="yE8PE5E7OYcc4bOPFpWW-15" value="direccion VARCHAR(100) NOT NULL" style="shape=partialRectangle;overflow=hidden;connectable=0;fillColor=none;top=0;left=0;bottom=0;right=0;align=left;spacingLeft=6;" parent="yE8PE5E7OYcc4bOPFpWW-13" vertex="1">
          <mxGeometry x="30" width="320" height="30" as="geometry">
            <mxRectangle width="320" height="30" as="alternateBounds" />
          </mxGeometry>
        </mxCell>
        <mxCell id="yE8PE5E7OYcc4bOPFpWW-38" value="" style="shape=partialRectangle;collapsible=0;dropTarget=0;pointerEvents=0;fillColor=none;points=[[0,0.5],[1,0.5]];portConstraint=eastwest;top=0;left=0;right=0;bottom=0;" parent="C-vyLk0tnHw3VtMMgP7b-23" vertex="1">
          <mxGeometry y="240" width="350" height="30" as="geometry" />
        </mxCell>
        <mxCell id="yE8PE5E7OYcc4bOPFpWW-39" value="" style="shape=partialRectangle;overflow=hidden;connectable=0;fillColor=none;top=0;left=0;bottom=0;right=0;" parent="yE8PE5E7OYcc4bOPFpWW-38" vertex="1">
          <mxGeometry width="30" height="30" as="geometry">
            <mxRectangle width="30" height="30" as="alternateBounds" />
          </mxGeometry>
        </mxCell>
        <mxCell id="yE8PE5E7OYcc4bOPFpWW-40" value="telefono VARCHAR(15)" style="shape=partialRectangle;overflow=hidden;connectable=0;fillColor=none;top=0;left=0;bottom=0;right=0;align=left;spacingLeft=6;" parent="yE8PE5E7OYcc4bOPFpWW-38" vertex="1">
          <mxGeometry x="30" width="320" height="30" as="geometry">
            <mxRectangle width="320" height="30" as="alternateBounds" />
          </mxGeometry>
        </mxCell>
        <mxCell id="yE8PE5E7OYcc4bOPFpWW-41" value="" style="shape=partialRectangle;collapsible=0;dropTarget=0;pointerEvents=0;fillColor=none;points=[[0,0.5],[1,0.5]];portConstraint=eastwest;top=0;left=0;right=0;bottom=0;" parent="C-vyLk0tnHw3VtMMgP7b-23" vertex="1">
          <mxGeometry y="270" width="350" height="30" as="geometry" />
        </mxCell>
        <mxCell id="yE8PE5E7OYcc4bOPFpWW-42" value="" style="shape=partialRectangle;overflow=hidden;connectable=0;fillColor=none;top=0;left=0;bottom=0;right=0;" parent="yE8PE5E7OYcc4bOPFpWW-41" vertex="1">
          <mxGeometry width="30" height="30" as="geometry">
            <mxRectangle width="30" height="30" as="alternateBounds" />
          </mxGeometry>
        </mxCell>
        <mxCell id="yE8PE5E7OYcc4bOPFpWW-43" value="correo_electronico VARCHAR(50) NOT NULL UNIQUE" style="shape=partialRectangle;overflow=hidden;connectable=0;fillColor=none;top=0;left=0;bottom=0;right=0;align=left;spacingLeft=6;" parent="yE8PE5E7OYcc4bOPFpWW-41" vertex="1">
          <mxGeometry x="30" width="320" height="30" as="geometry">
            <mxRectangle width="320" height="30" as="alternateBounds" />
          </mxGeometry>
        </mxCell>
        <mxCell id="yE8PE5E7OYcc4bOPFpWW-44" value="" style="shape=partialRectangle;collapsible=0;dropTarget=0;pointerEvents=0;fillColor=none;points=[[0,0.5],[1,0.5]];portConstraint=eastwest;top=0;left=0;right=0;bottom=0;" parent="C-vyLk0tnHw3VtMMgP7b-23" vertex="1">
          <mxGeometry y="300" width="350" height="30" as="geometry" />
        </mxCell>
        <mxCell id="yE8PE5E7OYcc4bOPFpWW-45" value="FK" style="shape=partialRectangle;overflow=hidden;connectable=0;fillColor=none;top=0;left=0;bottom=0;right=0;" parent="yE8PE5E7OYcc4bOPFpWW-44" vertex="1">
          <mxGeometry width="30" height="30" as="geometry">
            <mxRectangle width="30" height="30" as="alternateBounds" />
          </mxGeometry>
        </mxCell>
        <mxCell id="yE8PE5E7OYcc4bOPFpWW-46" value="nacionalidad_id INT NOT NULL" style="shape=partialRectangle;overflow=hidden;connectable=0;fillColor=none;top=0;left=0;bottom=0;right=0;align=left;spacingLeft=6;" parent="yE8PE5E7OYcc4bOPFpWW-44" vertex="1">
          <mxGeometry x="30" width="320" height="30" as="geometry">
            <mxRectangle width="320" height="30" as="alternateBounds" />
          </mxGeometry>
        </mxCell>
        <mxCell id="yE8PE5E7OYcc4bOPFpWW-82" value="" style="shape=partialRectangle;collapsible=0;dropTarget=0;pointerEvents=0;fillColor=none;points=[[0,0.5],[1,0.5]];portConstraint=eastwest;top=0;left=0;right=0;bottom=0;" parent="C-vyLk0tnHw3VtMMgP7b-23" vertex="1">
          <mxGeometry y="330" width="350" height="30" as="geometry" />
        </mxCell>
        <mxCell id="yE8PE5E7OYcc4bOPFpWW-83" value="FK" style="shape=partialRectangle;overflow=hidden;connectable=0;fillColor=none;top=0;left=0;bottom=0;right=0;" parent="yE8PE5E7OYcc4bOPFpWW-82" vertex="1">
          <mxGeometry width="30" height="30" as="geometry">
            <mxRectangle width="30" height="30" as="alternateBounds" />
          </mxGeometry>
        </mxCell>
        <mxCell id="yE8PE5E7OYcc4bOPFpWW-84" value="curso_id INT NOT NULL" style="shape=partialRectangle;overflow=hidden;connectable=0;fillColor=none;top=0;left=0;bottom=0;right=0;align=left;spacingLeft=6;" parent="yE8PE5E7OYcc4bOPFpWW-82" vertex="1">
          <mxGeometry x="30" width="320" height="30" as="geometry">
            <mxRectangle width="320" height="30" as="alternateBounds" />
          </mxGeometry>
        </mxCell>
        <mxCell id="yE8PE5E7OYcc4bOPFpWW-49" value="Tipo_Documento" style="shape=table;startSize=30;container=1;collapsible=1;childLayout=tableLayout;fixedRows=1;rowLines=0;fontStyle=1;align=center;resizeLast=1;" parent="1" vertex="1">
          <mxGeometry x="1060" y="245" width="366" height="90" as="geometry">
            <mxRectangle x="450" y="120" width="130" height="30" as="alternateBounds" />
          </mxGeometry>
        </mxCell>
        <mxCell id="yE8PE5E7OYcc4bOPFpWW-50" value="" style="shape=partialRectangle;collapsible=0;dropTarget=0;pointerEvents=0;fillColor=none;points=[[0,0.5],[1,0.5]];portConstraint=eastwest;top=0;left=0;right=0;bottom=1;" parent="yE8PE5E7OYcc4bOPFpWW-49" vertex="1">
          <mxGeometry y="30" width="366" height="30" as="geometry" />
        </mxCell>
        <mxCell id="yE8PE5E7OYcc4bOPFpWW-51" value="PK" style="shape=partialRectangle;overflow=hidden;connectable=0;fillColor=none;top=0;left=0;bottom=0;right=0;fontStyle=1;" parent="yE8PE5E7OYcc4bOPFpWW-50" vertex="1">
          <mxGeometry width="30" height="30" as="geometry">
            <mxRectangle width="30" height="30" as="alternateBounds" />
          </mxGeometry>
        </mxCell>
        <mxCell id="yE8PE5E7OYcc4bOPFpWW-52" value="tipo_documento_id INT" style="shape=partialRectangle;overflow=hidden;connectable=0;fillColor=none;top=0;left=0;bottom=0;right=0;align=left;spacingLeft=6;fontStyle=5;" parent="yE8PE5E7OYcc4bOPFpWW-50" vertex="1">
          <mxGeometry x="30" width="336" height="30" as="geometry">
            <mxRectangle width="336" height="30" as="alternateBounds" />
          </mxGeometry>
        </mxCell>
        <mxCell id="yE8PE5E7OYcc4bOPFpWW-53" value="" style="shape=partialRectangle;collapsible=0;dropTarget=0;pointerEvents=0;fillColor=none;points=[[0,0.5],[1,0.5]];portConstraint=eastwest;top=0;left=0;right=0;bottom=0;" parent="yE8PE5E7OYcc4bOPFpWW-49" vertex="1">
          <mxGeometry y="60" width="366" height="30" as="geometry" />
        </mxCell>
        <mxCell id="yE8PE5E7OYcc4bOPFpWW-54" value="" style="shape=partialRectangle;overflow=hidden;connectable=0;fillColor=none;top=0;left=0;bottom=0;right=0;" parent="yE8PE5E7OYcc4bOPFpWW-53" vertex="1">
          <mxGeometry width="30" height="30" as="geometry">
            <mxRectangle width="30" height="30" as="alternateBounds" />
          </mxGeometry>
        </mxCell>
        <mxCell id="yE8PE5E7OYcc4bOPFpWW-55" value="nombre_tipo_documento VARCHAR(50) NOT NULL UNIQUE" style="shape=partialRectangle;overflow=hidden;connectable=0;fillColor=none;top=0;left=0;bottom=0;right=0;align=left;spacingLeft=6;" parent="yE8PE5E7OYcc4bOPFpWW-53" vertex="1">
          <mxGeometry x="30" width="336" height="30" as="geometry">
            <mxRectangle width="336" height="30" as="alternateBounds" />
          </mxGeometry>
        </mxCell>
        <mxCell id="yE8PE5E7OYcc4bOPFpWW-57" value="Cursos" style="shape=table;startSize=30;container=1;collapsible=1;childLayout=tableLayout;fixedRows=1;rowLines=0;fontStyle=1;align=center;resizeLast=1;" parent="1" vertex="1">
          <mxGeometry x="990" y="30" width="282" height="180" as="geometry">
            <mxRectangle x="450" y="120" width="130" height="30" as="alternateBounds" />
          </mxGeometry>
        </mxCell>
        <mxCell id="yE8PE5E7OYcc4bOPFpWW-58" value="" style="shape=partialRectangle;collapsible=0;dropTarget=0;pointerEvents=0;fillColor=none;points=[[0,0.5],[1,0.5]];portConstraint=eastwest;top=0;left=0;right=0;bottom=1;" parent="yE8PE5E7OYcc4bOPFpWW-57" vertex="1">
          <mxGeometry y="30" width="282" height="30" as="geometry" />
        </mxCell>
        <mxCell id="yE8PE5E7OYcc4bOPFpWW-59" value="PK" style="shape=partialRectangle;overflow=hidden;connectable=0;fillColor=none;top=0;left=0;bottom=0;right=0;fontStyle=1;" parent="yE8PE5E7OYcc4bOPFpWW-58" vertex="1">
          <mxGeometry width="30" height="30" as="geometry">
            <mxRectangle width="30" height="30" as="alternateBounds" />
          </mxGeometry>
        </mxCell>
        <mxCell id="yE8PE5E7OYcc4bOPFpWW-60" value="curso_id SERIAL PRIMARY KEY" style="shape=partialRectangle;overflow=hidden;connectable=0;fillColor=none;top=0;left=0;bottom=0;right=0;align=left;spacingLeft=6;fontStyle=5;" parent="yE8PE5E7OYcc4bOPFpWW-58" vertex="1">
          <mxGeometry x="30" width="252" height="30" as="geometry">
            <mxRectangle width="252" height="30" as="alternateBounds" />
          </mxGeometry>
        </mxCell>
        <mxCell id="yE8PE5E7OYcc4bOPFpWW-61" value="" style="shape=partialRectangle;collapsible=0;dropTarget=0;pointerEvents=0;fillColor=none;points=[[0,0.5],[1,0.5]];portConstraint=eastwest;top=0;left=0;right=0;bottom=0;" parent="yE8PE5E7OYcc4bOPFpWW-57" vertex="1">
          <mxGeometry y="60" width="282" height="30" as="geometry" />
        </mxCell>
        <mxCell id="yE8PE5E7OYcc4bOPFpWW-62" value="" style="shape=partialRectangle;overflow=hidden;connectable=0;fillColor=none;top=0;left=0;bottom=0;right=0;" parent="yE8PE5E7OYcc4bOPFpWW-61" vertex="1">
          <mxGeometry width="30" height="30" as="geometry">
            <mxRectangle width="30" height="30" as="alternateBounds" />
          </mxGeometry>
        </mxCell>
        <mxCell id="yE8PE5E7OYcc4bOPFpWW-63" value="nombre_curso VARCHAR(50) NOT NULL" style="shape=partialRectangle;overflow=hidden;connectable=0;fillColor=none;top=0;left=0;bottom=0;right=0;align=left;spacingLeft=6;" parent="yE8PE5E7OYcc4bOPFpWW-61" vertex="1">
          <mxGeometry x="30" width="252" height="30" as="geometry">
            <mxRectangle width="252" height="30" as="alternateBounds" />
          </mxGeometry>
        </mxCell>
        <mxCell id="yE8PE5E7OYcc4bOPFpWW-64" value="" style="shape=partialRectangle;collapsible=0;dropTarget=0;pointerEvents=0;fillColor=none;points=[[0,0.5],[1,0.5]];portConstraint=eastwest;top=0;left=0;right=0;bottom=0;" parent="yE8PE5E7OYcc4bOPFpWW-57" vertex="1">
          <mxGeometry y="90" width="282" height="30" as="geometry" />
        </mxCell>
        <mxCell id="yE8PE5E7OYcc4bOPFpWW-65" value="" style="shape=partialRectangle;overflow=hidden;connectable=0;fillColor=none;top=0;left=0;bottom=0;right=0;" parent="yE8PE5E7OYcc4bOPFpWW-64" vertex="1">
          <mxGeometry width="30" height="30" as="geometry">
            <mxRectangle width="30" height="30" as="alternateBounds" />
          </mxGeometry>
        </mxCell>
        <mxCell id="yE8PE5E7OYcc4bOPFpWW-66" value="descripcion VARCHAR(255)" style="shape=partialRectangle;overflow=hidden;connectable=0;fillColor=none;top=0;left=0;bottom=0;right=0;align=left;spacingLeft=6;" parent="yE8PE5E7OYcc4bOPFpWW-64" vertex="1">
          <mxGeometry x="30" width="252" height="30" as="geometry">
            <mxRectangle width="252" height="30" as="alternateBounds" />
          </mxGeometry>
        </mxCell>
        <mxCell id="yE8PE5E7OYcc4bOPFpWW-67" value="" style="shape=partialRectangle;collapsible=0;dropTarget=0;pointerEvents=0;fillColor=none;points=[[0,0.5],[1,0.5]];portConstraint=eastwest;top=0;left=0;right=0;bottom=0;" parent="yE8PE5E7OYcc4bOPFpWW-57" vertex="1">
          <mxGeometry y="120" width="282" height="30" as="geometry" />
        </mxCell>
        <mxCell id="yE8PE5E7OYcc4bOPFpWW-68" value="" style="shape=partialRectangle;overflow=hidden;connectable=0;fillColor=none;top=0;left=0;bottom=0;right=0;" parent="yE8PE5E7OYcc4bOPFpWW-67" vertex="1">
          <mxGeometry width="30" height="30" as="geometry">
            <mxRectangle width="30" height="30" as="alternateBounds" />
          </mxGeometry>
        </mxCell>
        <mxCell id="yE8PE5E7OYcc4bOPFpWW-69" value="duracion_meses INT NOT NULL" style="shape=partialRectangle;overflow=hidden;connectable=0;fillColor=none;top=0;left=0;bottom=0;right=0;align=left;spacingLeft=6;" parent="yE8PE5E7OYcc4bOPFpWW-67" vertex="1">
          <mxGeometry x="30" width="252" height="30" as="geometry">
            <mxRectangle width="252" height="30" as="alternateBounds" />
          </mxGeometry>
        </mxCell>
        <mxCell id="yE8PE5E7OYcc4bOPFpWW-70" value="" style="shape=partialRectangle;collapsible=0;dropTarget=0;pointerEvents=0;fillColor=none;points=[[0,0.5],[1,0.5]];portConstraint=eastwest;top=0;left=0;right=0;bottom=0;" parent="yE8PE5E7OYcc4bOPFpWW-57" vertex="1">
          <mxGeometry y="150" width="282" height="30" as="geometry" />
        </mxCell>
        <mxCell id="yE8PE5E7OYcc4bOPFpWW-71" value="FK" style="shape=partialRectangle;overflow=hidden;connectable=0;fillColor=none;top=0;left=0;bottom=0;right=0;" parent="yE8PE5E7OYcc4bOPFpWW-70" vertex="1">
          <mxGeometry width="30" height="30" as="geometry">
            <mxRectangle width="30" height="30" as="alternateBounds" />
          </mxGeometry>
        </mxCell>
        <mxCell id="yE8PE5E7OYcc4bOPFpWW-72" value="modalidad_id INT NOT NULL" style="shape=partialRectangle;overflow=hidden;connectable=0;fillColor=none;top=0;left=0;bottom=0;right=0;align=left;spacingLeft=6;" parent="yE8PE5E7OYcc4bOPFpWW-70" vertex="1">
          <mxGeometry x="30" width="252" height="30" as="geometry">
            <mxRectangle width="252" height="30" as="alternateBounds" />
          </mxGeometry>
        </mxCell>
        <mxCell id="yE8PE5E7OYcc4bOPFpWW-73" value="ModalidadesImparticion" style="shape=table;startSize=20;container=1;collapsible=1;childLayout=tableLayout;fixedRows=1;rowLines=0;fontStyle=1;align=center;resizeLast=1;" parent="1" vertex="1">
          <mxGeometry x="1360" y="30" width="350" height="80" as="geometry">
            <mxRectangle x="450" y="120" width="130" height="30" as="alternateBounds" />
          </mxGeometry>
        </mxCell>
        <mxCell id="yE8PE5E7OYcc4bOPFpWW-74" value="" style="shape=partialRectangle;collapsible=0;dropTarget=0;pointerEvents=0;fillColor=none;points=[[0,0.5],[1,0.5]];portConstraint=eastwest;top=0;left=0;right=0;bottom=1;" parent="yE8PE5E7OYcc4bOPFpWW-73" vertex="1">
          <mxGeometry y="20" width="350" height="30" as="geometry" />
        </mxCell>
        <mxCell id="yE8PE5E7OYcc4bOPFpWW-75" value="PK" style="shape=partialRectangle;overflow=hidden;connectable=0;fillColor=none;top=0;left=0;bottom=0;right=0;fontStyle=1;" parent="yE8PE5E7OYcc4bOPFpWW-74" vertex="1">
          <mxGeometry width="30" height="30" as="geometry">
            <mxRectangle width="30" height="30" as="alternateBounds" />
          </mxGeometry>
        </mxCell>
        <mxCell id="yE8PE5E7OYcc4bOPFpWW-76" value="modalidad_id SERIAL PRIMARY KEY" style="shape=partialRectangle;overflow=hidden;connectable=0;fillColor=none;top=0;left=0;bottom=0;right=0;align=left;spacingLeft=6;fontStyle=5;" parent="yE8PE5E7OYcc4bOPFpWW-74" vertex="1">
          <mxGeometry x="30" width="320" height="30" as="geometry">
            <mxRectangle width="320" height="30" as="alternateBounds" />
          </mxGeometry>
        </mxCell>
        <mxCell id="yE8PE5E7OYcc4bOPFpWW-77" value="" style="shape=partialRectangle;collapsible=0;dropTarget=0;pointerEvents=0;fillColor=none;points=[[0,0.5],[1,0.5]];portConstraint=eastwest;top=0;left=0;right=0;bottom=0;" parent="yE8PE5E7OYcc4bOPFpWW-73" vertex="1">
          <mxGeometry y="50" width="350" height="30" as="geometry" />
        </mxCell>
        <mxCell id="yE8PE5E7OYcc4bOPFpWW-78" value="" style="shape=partialRectangle;overflow=hidden;connectable=0;fillColor=none;top=0;left=0;bottom=0;right=0;" parent="yE8PE5E7OYcc4bOPFpWW-77" vertex="1">
          <mxGeometry width="30" height="30" as="geometry">
            <mxRectangle width="30" height="30" as="alternateBounds" />
          </mxGeometry>
        </mxCell>
        <mxCell id="yE8PE5E7OYcc4bOPFpWW-79" value="nombre_modalidad VARCHAR(50) NOT NULL" style="shape=partialRectangle;overflow=hidden;connectable=0;fillColor=none;top=0;left=0;bottom=0;right=0;align=left;spacingLeft=6;" parent="yE8PE5E7OYcc4bOPFpWW-77" vertex="1">
          <mxGeometry x="30" width="320" height="30" as="geometry">
            <mxRectangle width="320" height="30" as="alternateBounds" />
          </mxGeometry>
        </mxCell>
        <mxCell id="yE8PE5E7OYcc4bOPFpWW-107" value="Profesores" style="shape=table;startSize=30;container=1;collapsible=1;childLayout=tableLayout;fixedRows=1;rowLines=0;fontStyle=1;align=center;resizeLast=1;" parent="1" vertex="1">
          <mxGeometry x="530" y="560" width="400" height="270" as="geometry">
            <mxRectangle x="450" y="120" width="130" height="30" as="alternateBounds" />
          </mxGeometry>
        </mxCell>
        <mxCell id="yE8PE5E7OYcc4bOPFpWW-108" value="" style="shape=partialRectangle;collapsible=0;dropTarget=0;pointerEvents=0;fillColor=none;points=[[0,0.5],[1,0.5]];portConstraint=eastwest;top=0;left=0;right=0;bottom=1;" parent="yE8PE5E7OYcc4bOPFpWW-107" vertex="1">
          <mxGeometry y="30" width="400" height="30" as="geometry" />
        </mxCell>
        <mxCell id="yE8PE5E7OYcc4bOPFpWW-109" value="PK" style="shape=partialRectangle;overflow=hidden;connectable=0;fillColor=none;top=0;left=0;bottom=0;right=0;fontStyle=1;" parent="yE8PE5E7OYcc4bOPFpWW-108" vertex="1">
          <mxGeometry width="30" height="30" as="geometry">
            <mxRectangle width="30" height="30" as="alternateBounds" />
          </mxGeometry>
        </mxCell>
        <mxCell id="yE8PE5E7OYcc4bOPFpWW-110" value="profesor_id SERIAL PRIMARY KEY" style="shape=partialRectangle;overflow=hidden;connectable=0;fillColor=none;top=0;left=0;bottom=0;right=0;align=left;spacingLeft=6;fontStyle=5;" parent="yE8PE5E7OYcc4bOPFpWW-108" vertex="1">
          <mxGeometry x="30" width="370" height="30" as="geometry">
            <mxRectangle width="370" height="30" as="alternateBounds" />
          </mxGeometry>
        </mxCell>
        <mxCell id="yE8PE5E7OYcc4bOPFpWW-111" value="" style="shape=partialRectangle;collapsible=0;dropTarget=0;pointerEvents=0;fillColor=none;points=[[0,0.5],[1,0.5]];portConstraint=eastwest;top=0;left=0;right=0;bottom=0;" parent="yE8PE5E7OYcc4bOPFpWW-107" vertex="1">
          <mxGeometry y="60" width="400" height="30" as="geometry" />
        </mxCell>
        <mxCell id="yE8PE5E7OYcc4bOPFpWW-112" value="" style="shape=partialRectangle;overflow=hidden;connectable=0;fillColor=none;top=0;left=0;bottom=0;right=0;" parent="yE8PE5E7OYcc4bOPFpWW-111" vertex="1">
          <mxGeometry width="30" height="30" as="geometry">
            <mxRectangle width="30" height="30" as="alternateBounds" />
          </mxGeometry>
        </mxCell>
        <mxCell id="yE8PE5E7OYcc4bOPFpWW-113" value="nombre_profesor VARCHAR(50) NOT NULL" style="shape=partialRectangle;overflow=hidden;connectable=0;fillColor=none;top=0;left=0;bottom=0;right=0;align=left;spacingLeft=6;" parent="yE8PE5E7OYcc4bOPFpWW-111" vertex="1">
          <mxGeometry x="30" width="370" height="30" as="geometry">
            <mxRectangle width="370" height="30" as="alternateBounds" />
          </mxGeometry>
        </mxCell>
        <mxCell id="yE8PE5E7OYcc4bOPFpWW-114" value="" style="shape=partialRectangle;collapsible=0;dropTarget=0;pointerEvents=0;fillColor=none;points=[[0,0.5],[1,0.5]];portConstraint=eastwest;top=0;left=0;right=0;bottom=0;" parent="yE8PE5E7OYcc4bOPFpWW-107" vertex="1">
          <mxGeometry y="90" width="400" height="30" as="geometry" />
        </mxCell>
        <mxCell id="yE8PE5E7OYcc4bOPFpWW-115" value="" style="shape=partialRectangle;overflow=hidden;connectable=0;fillColor=none;top=0;left=0;bottom=0;right=0;" parent="yE8PE5E7OYcc4bOPFpWW-114" vertex="1">
          <mxGeometry width="30" height="30" as="geometry">
            <mxRectangle width="30" height="30" as="alternateBounds" />
          </mxGeometry>
        </mxCell>
        <mxCell id="yE8PE5E7OYcc4bOPFpWW-116" value="apellido_profesor VARCHAR(50) NOT NULL" style="shape=partialRectangle;overflow=hidden;connectable=0;fillColor=none;top=0;left=0;bottom=0;right=0;align=left;spacingLeft=6;" parent="yE8PE5E7OYcc4bOPFpWW-114" vertex="1">
          <mxGeometry x="30" width="370" height="30" as="geometry">
            <mxRectangle width="370" height="30" as="alternateBounds" />
          </mxGeometry>
        </mxCell>
        <mxCell id="yE8PE5E7OYcc4bOPFpWW-117" value="" style="shape=partialRectangle;collapsible=0;dropTarget=0;pointerEvents=0;fillColor=none;points=[[0,0.5],[1,0.5]];portConstraint=eastwest;top=0;left=0;right=0;bottom=0;" parent="yE8PE5E7OYcc4bOPFpWW-107" vertex="1">
          <mxGeometry y="120" width="400" height="30" as="geometry" />
        </mxCell>
        <mxCell id="yE8PE5E7OYcc4bOPFpWW-118" value="FK" style="shape=partialRectangle;overflow=hidden;connectable=0;fillColor=none;top=0;left=0;bottom=0;right=0;" parent="yE8PE5E7OYcc4bOPFpWW-117" vertex="1">
          <mxGeometry width="30" height="30" as="geometry">
            <mxRectangle width="30" height="30" as="alternateBounds" />
          </mxGeometry>
        </mxCell>
        <mxCell id="yE8PE5E7OYcc4bOPFpWW-119" value="tipo_documento_id INT NOT NULL" style="shape=partialRectangle;overflow=hidden;connectable=0;fillColor=none;top=0;left=0;bottom=0;right=0;align=left;spacingLeft=6;" parent="yE8PE5E7OYcc4bOPFpWW-117" vertex="1">
          <mxGeometry x="30" width="370" height="30" as="geometry">
            <mxRectangle width="370" height="30" as="alternateBounds" />
          </mxGeometry>
        </mxCell>
        <mxCell id="yE8PE5E7OYcc4bOPFpWW-120" value="" style="shape=partialRectangle;collapsible=0;dropTarget=0;pointerEvents=0;fillColor=none;points=[[0,0.5],[1,0.5]];portConstraint=eastwest;top=0;left=0;right=0;bottom=0;" parent="yE8PE5E7OYcc4bOPFpWW-107" vertex="1">
          <mxGeometry y="150" width="400" height="30" as="geometry" />
        </mxCell>
        <mxCell id="yE8PE5E7OYcc4bOPFpWW-121" value="" style="shape=partialRectangle;overflow=hidden;connectable=0;fillColor=none;top=0;left=0;bottom=0;right=0;" parent="yE8PE5E7OYcc4bOPFpWW-120" vertex="1">
          <mxGeometry width="30" height="30" as="geometry">
            <mxRectangle width="30" height="30" as="alternateBounds" />
          </mxGeometry>
        </mxCell>
        <mxCell id="yE8PE5E7OYcc4bOPFpWW-122" value="numero_documento VARCHAR(20) NOT NULL UNIQUE" style="shape=partialRectangle;overflow=hidden;connectable=0;fillColor=none;top=0;left=0;bottom=0;right=0;align=left;spacingLeft=6;" parent="yE8PE5E7OYcc4bOPFpWW-120" vertex="1">
          <mxGeometry x="30" width="370" height="30" as="geometry">
            <mxRectangle width="370" height="30" as="alternateBounds" />
          </mxGeometry>
        </mxCell>
        <mxCell id="yE8PE5E7OYcc4bOPFpWW-123" value="" style="shape=partialRectangle;collapsible=0;dropTarget=0;pointerEvents=0;fillColor=none;points=[[0,0.5],[1,0.5]];portConstraint=eastwest;top=0;left=0;right=0;bottom=0;" parent="yE8PE5E7OYcc4bOPFpWW-107" vertex="1">
          <mxGeometry y="180" width="400" height="30" as="geometry" />
        </mxCell>
        <mxCell id="yE8PE5E7OYcc4bOPFpWW-124" value="FK" style="shape=partialRectangle;overflow=hidden;connectable=0;fillColor=none;top=0;left=0;bottom=0;right=0;" parent="yE8PE5E7OYcc4bOPFpWW-123" vertex="1">
          <mxGeometry width="30" height="30" as="geometry">
            <mxRectangle width="30" height="30" as="alternateBounds" />
          </mxGeometry>
        </mxCell>
        <mxCell id="yE8PE5E7OYcc4bOPFpWW-125" value="nacionalidad_id INT NOT NULL" style="shape=partialRectangle;overflow=hidden;connectable=0;fillColor=none;top=0;left=0;bottom=0;right=0;align=left;spacingLeft=6;" parent="yE8PE5E7OYcc4bOPFpWW-123" vertex="1">
          <mxGeometry x="30" width="370" height="30" as="geometry">
            <mxRectangle width="370" height="30" as="alternateBounds" />
          </mxGeometry>
        </mxCell>
        <mxCell id="yE8PE5E7OYcc4bOPFpWW-126" value="" style="shape=partialRectangle;collapsible=0;dropTarget=0;pointerEvents=0;fillColor=none;points=[[0,0.5],[1,0.5]];portConstraint=eastwest;top=0;left=0;right=0;bottom=0;" parent="yE8PE5E7OYcc4bOPFpWW-107" vertex="1">
          <mxGeometry y="210" width="400" height="30" as="geometry" />
        </mxCell>
        <mxCell id="yE8PE5E7OYcc4bOPFpWW-127" value="FK" style="shape=partialRectangle;overflow=hidden;connectable=0;fillColor=none;top=0;left=0;bottom=0;right=0;" parent="yE8PE5E7OYcc4bOPFpWW-126" vertex="1">
          <mxGeometry width="30" height="30" as="geometry">
            <mxRectangle width="30" height="30" as="alternateBounds" />
          </mxGeometry>
        </mxCell>
        <mxCell id="yE8PE5E7OYcc4bOPFpWW-128" value="curso_id INT NOT NULL" style="shape=partialRectangle;overflow=hidden;connectable=0;fillColor=none;top=0;left=0;bottom=0;right=0;align=left;spacingLeft=6;" parent="yE8PE5E7OYcc4bOPFpWW-126" vertex="1">
          <mxGeometry x="30" width="370" height="30" as="geometry">
            <mxRectangle width="370" height="30" as="alternateBounds" />
          </mxGeometry>
        </mxCell>
        <mxCell id="yE8PE5E7OYcc4bOPFpWW-129" value="" style="shape=partialRectangle;collapsible=0;dropTarget=0;pointerEvents=0;fillColor=none;points=[[0,0.5],[1,0.5]];portConstraint=eastwest;top=0;left=0;right=0;bottom=0;" parent="yE8PE5E7OYcc4bOPFpWW-107" vertex="1">
          <mxGeometry y="240" width="400" height="30" as="geometry" />
        </mxCell>
        <mxCell id="yE8PE5E7OYcc4bOPFpWW-130" value="" style="shape=partialRectangle;overflow=hidden;connectable=0;fillColor=none;top=0;left=0;bottom=0;right=0;" parent="yE8PE5E7OYcc4bOPFpWW-129" vertex="1">
          <mxGeometry width="30" height="30" as="geometry">
            <mxRectangle width="30" height="30" as="alternateBounds" />
          </mxGeometry>
        </mxCell>
        <mxCell id="yE8PE5E7OYcc4bOPFpWW-131" value="correo_electronico_profesor VARCHAR(50) UNIQUE NOT NULL" style="shape=partialRectangle;overflow=hidden;connectable=0;fillColor=none;top=0;left=0;bottom=0;right=0;align=left;spacingLeft=6;" parent="yE8PE5E7OYcc4bOPFpWW-129" vertex="1">
          <mxGeometry x="30" width="370" height="30" as="geometry">
            <mxRectangle width="370" height="30" as="alternateBounds" />
          </mxGeometry>
        </mxCell>
        <mxCell id="P07OehM0xnk_mPkCc4tD-1" value="" style="edgeStyle=entityRelationEdgeStyle;fontSize=12;html=1;endArrow=ERoneToMany;rounded=0;entryX=1;entryY=0.5;entryDx=0;entryDy=0;exitX=0;exitY=0.5;exitDx=0;exitDy=0;" edge="1" parent="1" source="yE8PE5E7OYcc4bOPFpWW-74" target="yE8PE5E7OYcc4bOPFpWW-70">
          <mxGeometry width="100" height="100" relative="1" as="geometry">
            <mxPoint x="1290" y="220" as="sourcePoint" />
            <mxPoint x="1390" y="120" as="targetPoint" />
          </mxGeometry>
        </mxCell>
        <mxCell id="P07OehM0xnk_mPkCc4tD-2" value="" style="edgeStyle=entityRelationEdgeStyle;fontSize=12;html=1;endArrow=ERoneToMany;rounded=0;entryX=1;entryY=0.5;entryDx=0;entryDy=0;" edge="1" parent="1" source="yE8PE5E7OYcc4bOPFpWW-58" target="yE8PE5E7OYcc4bOPFpWW-82">
          <mxGeometry width="100" height="100" relative="1" as="geometry">
            <mxPoint x="890" y="330" as="sourcePoint" />
            <mxPoint x="990" y="230" as="targetPoint" />
          </mxGeometry>
        </mxCell>
        <mxCell id="P07OehM0xnk_mPkCc4tD-3" value="" style="edgeStyle=entityRelationEdgeStyle;fontSize=12;html=1;endArrow=ERoneToMany;rounded=0;exitX=0;exitY=0.5;exitDx=0;exitDy=0;" edge="1" parent="1" source="C-vyLk0tnHw3VtMMgP7b-3" target="yE8PE5E7OYcc4bOPFpWW-44">
          <mxGeometry width="100" height="100" relative="1" as="geometry">
            <mxPoint x="1000" y="85" as="sourcePoint" />
            <mxPoint x="890" y="465" as="targetPoint" />
          </mxGeometry>
        </mxCell>
        <mxCell id="P07OehM0xnk_mPkCc4tD-4" value="" style="edgeStyle=entityRelationEdgeStyle;fontSize=12;html=1;endArrow=ERoneToMany;rounded=0;entryX=1;entryY=0.5;entryDx=0;entryDy=0;" edge="1" parent="1" source="yE8PE5E7OYcc4bOPFpWW-50" target="yE8PE5E7OYcc4bOPFpWW-4">
          <mxGeometry width="100" height="100" relative="1" as="geometry">
            <mxPoint x="1030" y="425" as="sourcePoint" />
            <mxPoint x="890" y="435" as="targetPoint" />
          </mxGeometry>
        </mxCell>
        <mxCell id="P07OehM0xnk_mPkCc4tD-5" value="" style="edgeStyle=entityRelationEdgeStyle;fontSize=12;html=1;endArrow=ERoneToMany;rounded=0;exitX=0;exitY=0.5;exitDx=0;exitDy=0;entryX=1.004;entryY=0.629;entryDx=0;entryDy=0;entryPerimeter=0;" edge="1" parent="1" source="yE8PE5E7OYcc4bOPFpWW-58" target="yE8PE5E7OYcc4bOPFpWW-126">
          <mxGeometry width="100" height="100" relative="1" as="geometry">
            <mxPoint x="1040" y="435" as="sourcePoint" />
            <mxPoint x="1000" y="1024.2857142857142" as="targetPoint" />
          </mxGeometry>
        </mxCell>
        <mxCell id="P07OehM0xnk_mPkCc4tD-6" value="" style="edgeStyle=entityRelationEdgeStyle;fontSize=12;html=1;endArrow=ERoneToMany;rounded=0;exitX=0;exitY=0.5;exitDx=0;exitDy=0;" edge="1" parent="1" source="C-vyLk0tnHw3VtMMgP7b-3" target="yE8PE5E7OYcc4bOPFpWW-123">
          <mxGeometry width="100" height="100" relative="1" as="geometry">
            <mxPoint x="1050" y="445" as="sourcePoint" />
            <mxPoint x="910" y="455" as="targetPoint" />
          </mxGeometry>
        </mxCell>
        <mxCell id="P07OehM0xnk_mPkCc4tD-7" value="" style="edgeStyle=entityRelationEdgeStyle;fontSize=12;html=1;endArrow=ERoneToMany;rounded=0;exitX=0;exitY=0.5;exitDx=0;exitDy=0;entryX=1;entryY=0.5;entryDx=0;entryDy=0;" edge="1" parent="1" source="yE8PE5E7OYcc4bOPFpWW-50" target="yE8PE5E7OYcc4bOPFpWW-117">
          <mxGeometry width="100" height="100" relative="1" as="geometry">
            <mxPoint x="1050" y="525" as="sourcePoint" />
            <mxPoint x="940" y="765" as="targetPoint" />
          </mxGeometry>
        </mxCell>
        <mxCell id="P07OehM0xnk_mPkCc4tD-8" value="Profesores_Cursos" style="shape=table;startSize=30;container=1;collapsible=1;childLayout=tableLayout;fixedRows=1;rowLines=0;fontStyle=1;align=center;resizeLast=1;" vertex="1" parent="1">
          <mxGeometry x="10" y="440" width="366" height="120" as="geometry">
            <mxRectangle x="450" y="120" width="130" height="30" as="alternateBounds" />
          </mxGeometry>
        </mxCell>
        <mxCell id="P07OehM0xnk_mPkCc4tD-9" value="" style="shape=partialRectangle;collapsible=0;dropTarget=0;pointerEvents=0;fillColor=none;points=[[0,0.5],[1,0.5]];portConstraint=eastwest;top=0;left=0;right=0;bottom=1;" vertex="1" parent="P07OehM0xnk_mPkCc4tD-8">
          <mxGeometry y="30" width="366" height="30" as="geometry" />
        </mxCell>
        <mxCell id="P07OehM0xnk_mPkCc4tD-10" value="PK" style="shape=partialRectangle;overflow=hidden;connectable=0;fillColor=none;top=0;left=0;bottom=0;right=0;fontStyle=1;" vertex="1" parent="P07OehM0xnk_mPkCc4tD-9">
          <mxGeometry width="30" height="30" as="geometry">
            <mxRectangle width="30" height="30" as="alternateBounds" />
          </mxGeometry>
        </mxCell>
        <mxCell id="P07OehM0xnk_mPkCc4tD-11" value="id_profesores_cursos SERIAL PRIMARY KEY" style="shape=partialRectangle;overflow=hidden;connectable=0;fillColor=none;top=0;left=0;bottom=0;right=0;align=left;spacingLeft=6;fontStyle=5;" vertex="1" parent="P07OehM0xnk_mPkCc4tD-9">
          <mxGeometry x="30" width="336" height="30" as="geometry">
            <mxRectangle width="336" height="30" as="alternateBounds" />
          </mxGeometry>
        </mxCell>
        <mxCell id="P07OehM0xnk_mPkCc4tD-12" value="" style="shape=partialRectangle;collapsible=0;dropTarget=0;pointerEvents=0;fillColor=none;points=[[0,0.5],[1,0.5]];portConstraint=eastwest;top=0;left=0;right=0;bottom=0;" vertex="1" parent="P07OehM0xnk_mPkCc4tD-8">
          <mxGeometry y="60" width="366" height="30" as="geometry" />
        </mxCell>
        <mxCell id="P07OehM0xnk_mPkCc4tD-13" value="" style="shape=partialRectangle;overflow=hidden;connectable=0;fillColor=none;top=0;left=0;bottom=0;right=0;" vertex="1" parent="P07OehM0xnk_mPkCc4tD-12">
          <mxGeometry width="30" height="30" as="geometry">
            <mxRectangle width="30" height="30" as="alternateBounds" />
          </mxGeometry>
        </mxCell>
        <mxCell id="P07OehM0xnk_mPkCc4tD-14" value="profesor_id INT" style="shape=partialRectangle;overflow=hidden;connectable=0;fillColor=none;top=0;left=0;bottom=0;right=0;align=left;spacingLeft=6;" vertex="1" parent="P07OehM0xnk_mPkCc4tD-12">
          <mxGeometry x="30" width="336" height="30" as="geometry">
            <mxRectangle width="336" height="30" as="alternateBounds" />
          </mxGeometry>
        </mxCell>
        <mxCell id="P07OehM0xnk_mPkCc4tD-15" value="" style="shape=partialRectangle;collapsible=0;dropTarget=0;pointerEvents=0;fillColor=none;points=[[0,0.5],[1,0.5]];portConstraint=eastwest;top=0;left=0;right=0;bottom=0;" vertex="1" parent="P07OehM0xnk_mPkCc4tD-8">
          <mxGeometry y="90" width="366" height="30" as="geometry" />
        </mxCell>
        <mxCell id="P07OehM0xnk_mPkCc4tD-16" value="" style="shape=partialRectangle;overflow=hidden;connectable=0;fillColor=none;top=0;left=0;bottom=0;right=0;" vertex="1" parent="P07OehM0xnk_mPkCc4tD-15">
          <mxGeometry width="30" height="30" as="geometry">
            <mxRectangle width="30" height="30" as="alternateBounds" />
          </mxGeometry>
        </mxCell>
        <mxCell id="P07OehM0xnk_mPkCc4tD-17" value="curso_id INT" style="shape=partialRectangle;overflow=hidden;connectable=0;fillColor=none;top=0;left=0;bottom=0;right=0;align=left;spacingLeft=6;" vertex="1" parent="P07OehM0xnk_mPkCc4tD-15">
          <mxGeometry x="30" width="336" height="30" as="geometry">
            <mxRectangle width="336" height="30" as="alternateBounds" />
          </mxGeometry>
        </mxCell>
        <mxCell id="P07OehM0xnk_mPkCc4tD-18" value="" style="edgeStyle=entityRelationEdgeStyle;fontSize=12;html=1;endArrow=ERoneToMany;rounded=0;exitX=0;exitY=0.5;exitDx=0;exitDy=0;entryX=1;entryY=0.5;entryDx=0;entryDy=0;" edge="1" parent="1" source="yE8PE5E7OYcc4bOPFpWW-108" target="P07OehM0xnk_mPkCc4tD-12">
          <mxGeometry width="100" height="100" relative="1" as="geometry">
            <mxPoint x="380" y="640" as="sourcePoint" />
            <mxPoint x="220" y="550" as="targetPoint" />
          </mxGeometry>
        </mxCell>
        <mxCell id="P07OehM0xnk_mPkCc4tD-19" value="" style="edgeStyle=elbowEdgeStyle;fontSize=12;html=1;endArrow=ERoneToMany;rounded=0;entryX=1;entryY=0.5;entryDx=0;entryDy=0;" edge="1" parent="1" source="yE8PE5E7OYcc4bOPFpWW-58" target="P07OehM0xnk_mPkCc4tD-12">
          <mxGeometry width="100" height="100" relative="1" as="geometry">
            <mxPoint x="540" y="615" as="sourcePoint" />
            <mxPoint x="376" y="435" as="targetPoint" />
            <Array as="points">
              <mxPoint x="460" y="240" />
            </Array>
          </mxGeometry>
        </mxCell>
        <mxCell id="P07OehM0xnk_mPkCc4tD-30" value="Alumnos_Cursos" style="shape=table;startSize=30;container=1;collapsible=1;childLayout=tableLayout;fixedRows=1;rowLines=0;fontStyle=1;align=center;resizeLast=1;" vertex="1" parent="1">
          <mxGeometry x="10" y="160" width="366" height="120" as="geometry">
            <mxRectangle x="450" y="120" width="130" height="30" as="alternateBounds" />
          </mxGeometry>
        </mxCell>
        <mxCell id="P07OehM0xnk_mPkCc4tD-31" value="" style="shape=partialRectangle;collapsible=0;dropTarget=0;pointerEvents=0;fillColor=none;points=[[0,0.5],[1,0.5]];portConstraint=eastwest;top=0;left=0;right=0;bottom=1;" vertex="1" parent="P07OehM0xnk_mPkCc4tD-30">
          <mxGeometry y="30" width="366" height="30" as="geometry" />
        </mxCell>
        <mxCell id="P07OehM0xnk_mPkCc4tD-32" value="PK" style="shape=partialRectangle;overflow=hidden;connectable=0;fillColor=none;top=0;left=0;bottom=0;right=0;fontStyle=1;" vertex="1" parent="P07OehM0xnk_mPkCc4tD-31">
          <mxGeometry width="30" height="30" as="geometry">
            <mxRectangle width="30" height="30" as="alternateBounds" />
          </mxGeometry>
        </mxCell>
        <mxCell id="P07OehM0xnk_mPkCc4tD-33" value="id_alumnos_cursos SERIAL PRIMARY KEY" style="shape=partialRectangle;overflow=hidden;connectable=0;fillColor=none;top=0;left=0;bottom=0;right=0;align=left;spacingLeft=6;fontStyle=5;" vertex="1" parent="P07OehM0xnk_mPkCc4tD-31">
          <mxGeometry x="30" width="336" height="30" as="geometry">
            <mxRectangle width="336" height="30" as="alternateBounds" />
          </mxGeometry>
        </mxCell>
        <mxCell id="P07OehM0xnk_mPkCc4tD-34" value="" style="shape=partialRectangle;collapsible=0;dropTarget=0;pointerEvents=0;fillColor=none;points=[[0,0.5],[1,0.5]];portConstraint=eastwest;top=0;left=0;right=0;bottom=0;" vertex="1" parent="P07OehM0xnk_mPkCc4tD-30">
          <mxGeometry y="60" width="366" height="30" as="geometry" />
        </mxCell>
        <mxCell id="P07OehM0xnk_mPkCc4tD-35" value="" style="shape=partialRectangle;overflow=hidden;connectable=0;fillColor=none;top=0;left=0;bottom=0;right=0;" vertex="1" parent="P07OehM0xnk_mPkCc4tD-34">
          <mxGeometry width="30" height="30" as="geometry">
            <mxRectangle width="30" height="30" as="alternateBounds" />
          </mxGeometry>
        </mxCell>
        <mxCell id="P07OehM0xnk_mPkCc4tD-36" value="alumno_id INT" style="shape=partialRectangle;overflow=hidden;connectable=0;fillColor=none;top=0;left=0;bottom=0;right=0;align=left;spacingLeft=6;" vertex="1" parent="P07OehM0xnk_mPkCc4tD-34">
          <mxGeometry x="30" width="336" height="30" as="geometry">
            <mxRectangle width="336" height="30" as="alternateBounds" />
          </mxGeometry>
        </mxCell>
        <mxCell id="P07OehM0xnk_mPkCc4tD-37" value="" style="shape=partialRectangle;collapsible=0;dropTarget=0;pointerEvents=0;fillColor=none;points=[[0,0.5],[1,0.5]];portConstraint=eastwest;top=0;left=0;right=0;bottom=0;" vertex="1" parent="P07OehM0xnk_mPkCc4tD-30">
          <mxGeometry y="90" width="366" height="30" as="geometry" />
        </mxCell>
        <mxCell id="P07OehM0xnk_mPkCc4tD-38" value="" style="shape=partialRectangle;overflow=hidden;connectable=0;fillColor=none;top=0;left=0;bottom=0;right=0;" vertex="1" parent="P07OehM0xnk_mPkCc4tD-37">
          <mxGeometry width="30" height="30" as="geometry">
            <mxRectangle width="30" height="30" as="alternateBounds" />
          </mxGeometry>
        </mxCell>
        <mxCell id="P07OehM0xnk_mPkCc4tD-39" value="curso_id INT" style="shape=partialRectangle;overflow=hidden;connectable=0;fillColor=none;top=0;left=0;bottom=0;right=0;align=left;spacingLeft=6;" vertex="1" parent="P07OehM0xnk_mPkCc4tD-37">
          <mxGeometry x="30" width="336" height="30" as="geometry">
            <mxRectangle width="336" height="30" as="alternateBounds" />
          </mxGeometry>
        </mxCell>
        <mxCell id="P07OehM0xnk_mPkCc4tD-40" value="" style="edgeStyle=elbowEdgeStyle;fontSize=12;html=1;endArrow=ERoneToMany;rounded=0;exitX=0;exitY=0.5;exitDx=0;exitDy=0;entryX=1;entryY=0.5;entryDx=0;entryDy=0;" edge="1" parent="1" source="yE8PE5E7OYcc4bOPFpWW-58" target="P07OehM0xnk_mPkCc4tD-37">
          <mxGeometry width="100" height="100" relative="1" as="geometry">
            <mxPoint x="1000" y="85" as="sourcePoint" />
            <mxPoint x="386" y="525" as="targetPoint" />
            <Array as="points">
              <mxPoint x="470" y="250" />
            </Array>
          </mxGeometry>
        </mxCell>
        <mxCell id="P07OehM0xnk_mPkCc4tD-41" value="" style="edgeStyle=elbowEdgeStyle;fontSize=12;html=1;endArrow=ERoneToMany;rounded=0;" edge="1" parent="1" source="C-vyLk0tnHw3VtMMgP7b-24" target="P07OehM0xnk_mPkCc4tD-34">
          <mxGeometry width="100" height="100" relative="1" as="geometry">
            <mxPoint x="1000" y="85" as="sourcePoint" />
            <mxPoint x="386" y="260" as="targetPoint" />
          </mxGeometry>
        </mxCell>
      </root>
    </mxGraphModel>
  </diagram>
</mxfile>
